<?xml version="1.0" encoding="utf-8"?>
<svg version="1.1" xmlns="http://www.w3.org/2000/svg" xmlns:xlink="http://www.w3.org/1999/xlink"
     viewBox="0 0 122.88 122.151" width="512" height="273.292" preserveAspectRatio="xMidYMid meet">
<g>
    <path fill-rule="evenodd" clip-rule="evenodd" d="
        M8.676,0h105.529c2.405,0,4.557,0.984,6.124,2.552c1.567,1.567,2.551,3.754,2.551,6.124v104.8
        c0,2.405-0.983,4.557-2.551,6.124c-1.568,1.567-3.755,2.552-6.124,2.552H8.676
        c-2.406,0-4.557-0.984-6.124-2.553C0.984,118.032,0,115.845,0,113.476V8.675
        C0,6.27,0.984,4.119,2.552,2.552C4.12,0.984,6.307,0,8.676,0L8.676,0z
        
        M11,11 h100.88 v100.15 h-100.88 z
        
        M40,35 L20,61 L40,87 L48,80 L32,61 L48,42 Z
        M82,35 L102,61 L82,87 L74,80 L90,61 L74,42 Z
        M66,30 L56,92 H64 L74,30 Z
    "/>
</g>
</svg>
