<?xml version="1.0" encoding="utf-8"?>
<svg version="1.1" xmlns="http://www.w3.org/2000/svg" xmlns:xlink="http://www.w3.org/1999/xlink"
     viewBox="0 0 122.88 122.151" width="512" height="273.292" preserveAspectRatio="xMidYMid meet">
<g>
    <path fill-rule="evenodd" clip-rule="evenodd" d="
        M8.676,0h105.529c2.405,0,4.557,0.984,6.124,2.552c1.567,1.567,2.551,3.754,2.551,6.124v104.8
        c0,2.405-0.983,4.557-2.551,6.124c-1.568,1.567-3.755,2.552-6.124,2.552H8.676
        c-2.406,0-4.557-0.984-6.124-2.553C0.984,118.032,0,115.845,0,113.476V8.675
        C0,6.27,0.984,4.119,2.552,2.552C4.12,0.984,6.307,0,8.676,0L8.676,0z
        
        M11,11 h100.88 v100.15 h-100.88 z
        
        M78.5,33.5 l-10,10 l6,6 l10-10 c4.4-4.4,4.4-11.6,0-16 c-4.4-4.4-11.6-4.4-16,0 
        L58.5,33.5 l6,6 l10-10 C76,28,77,28,78.5,29.5 C80,31,80,32,78.5,33.5 z
        
        M67.5,42.5 l-6,6 l16,16 l6-6 L67.5,42.5 z
        
        M44.5,67.5 l10-10 l-6-6 l-10,10 c-4.4,4.4-4.4,11.6,0,16 c4.4,4.4,11.6,4.4,16,0 
        l10-10 l-6-6 l-10,10 C47,73,46,73,44.5,71.5 C43,70,43,69,44.5,67.5 z
    "/>
</g>
</svg>
